# xmcd CD database file
#
# Track frame offsets:
#	150
#	17456
#	28766
#	42138
#	59032
#	73801
#	86042
#	101898
#	116582
#	131321
#	146845
#	159456
#	177275
#	194076
#
# Disc length: 2747 seconds
#
# Revision: 1
# Processed by: cddbd v1.5.2PL0 Copyright (c) Steve Scherf et al.
# Submitted via: CDex 1.79
#
DISCID=cd0ab90e
DTITLE=Don Williams - My Heart To You
DYEAR=2004
DGENRE=Country
TTITLE0=Running In The Fast Lane
TTITLE1=Fly Away
TTITLE2=I'll Be Faithful To You
TTITLE3=Oh Misery
TTITLE4=My Heart To You
TTITLE5=One Like Me
TTITLE6=The Rose
TTITLE7=When I`m With You
TTITLE8=Get Away
TTITLE9=Wonderful Tonight
TTITLE10=Years From Now
TTITLE11=If You Could Read My Mind
TTITLE12=Fever
TTITLE13=Some Broken Hearts Never Mend (live)
EXTD=YEAR: 2004
EXTT0=
EXTT1=
EXTT2=
EXTT3=
EXTT4=
EXTT5=
EXTT6=
EXTT7=
EXTT8=
EXTT9=
EXTT10=
EXTT11=
EXTT12=
EXTT13=
PLAYORDER=
